<svg class="header-logo-dark" width="142" height="32" viewBox="0 0 142 32" fill="none" xmlns="http://www.w3.org/2000/svg">
   <path d="M13.22 2.87214C15.8135 2.88954 18.3437 3.67447 20.4916 5.12797C22.6396 6.58146 24.309 8.63842 25.2894 11.0395C26.2699 13.4405 26.5174 16.0781 26.0008 18.6196C25.4842 21.1611 24.2266 23.4928 22.3866 25.3205C20.5466 27.1482 18.2066 28.3902 15.6617 28.8898C13.1168 29.3894 10.4809 29.1243 8.08645 28.1278C5.69203 27.1314 3.64627 25.4482 2.20717 23.2906C0.768064 21.133 5.8334e-05 18.5976 0 16.0041C0.0117735 12.5096 1.41119 9.16297 3.89041 6.70027C6.36963 4.23757 9.72558 2.86056 13.22 2.87214Z" fill="url(#paint0_linear_1700_816843)"/>
   <path d="M14.7876 23.6287L13.2818 24.4983L10.0469 22.6333L11.516 21.7851L11.5527 21.7637L11.6092 21.7962L14.7876 23.6287Z" fill="white"/>
   <path d="M20.5681 11.8796V13.6301L17.3836 11.7916L16.52 11.293L15.6563 11.7916L11.6091 14.1294L10.7454 14.628V15.6601L9.18823 14.7614L8.32457 14.2628L7.4609 14.7614L5.99609 15.6062V11.8796L13.2817 7.67334L20.5681 11.8796Z" fill="white"/>
   <path d="M20.568 15.6216V20.299L16.5208 22.6335H16.5156L12.4727 20.299V15.6216L16.5208 13.2837L20.568 15.6216Z" fill="white"/>
   <path d="M10.6522 17.5983V20.2859L8.32371 21.631L5.99609 20.2867V17.5991L8.32457 16.2549L10.6522 17.5983Z" fill="white"/>
   <path d="M36.6434 10.8458V15.354H44.8832V18.5179H36.6434V24.7328H32.5234V7.67334H45.9761V10.8458H36.6434Z" fill="white"/>
   <path d="M47.7812 7.67334H51.7473V24.7311H47.7812V7.67334Z" fill="white"/>
   <path d="M68.6225 11.0479V24.7297H64.86V23.1024C64.326 23.6957 63.6701 24.1665 62.9371 24.4825C62.2041 24.7985 61.4115 24.9522 60.6135 24.9332C57.1802 24.9332 54.7637 23.0006 54.7637 18.7764V11.0479H58.7314V18.1966C58.7314 20.4857 59.7481 21.5033 61.5028 21.5033C63.3336 21.5033 64.6556 20.3335 64.6556 17.8144V11.0479H68.6225Z" fill="white"/>
   <path d="M80.0698 24.7314L77.0692 20.5336L73.9711 24.7314H69.6426L74.9058 17.8375L69.8221 11.0479H74.2687L77.1761 15.0412L80.1519 11.0479H84.3736L79.2865 17.7357L84.5711 24.7314H80.0698Z" fill="white"/>
   <path d="M99.6106 23.3687V24.5H87.7316V7.2841H99.2417V8.41543H88.9859V15.2034H98.1596V16.3102H88.9859V23.3687H99.6106ZM112.526 6.25115V24.5H111.321V21.4749C110.813 22.4751 110.1 23.2457 109.182 23.7868C108.263 24.3278 107.222 24.5984 106.058 24.5984C104.861 24.5984 103.779 24.3196 102.812 23.7622C101.844 23.2047 101.082 22.4341 100.524 21.4503C99.9834 20.4666 99.7128 19.3434 99.7128 18.0809C99.7128 16.8184 99.9834 15.6953 100.524 14.7115C101.082 13.7114 101.844 12.9408 102.812 12.3997C103.779 11.8422 104.861 11.5635 106.058 11.5635C107.206 11.5635 108.231 11.834 109.132 12.3751C110.051 12.9162 110.772 13.6704 111.297 14.6377V6.25115H112.526ZM106.132 23.4916C107.116 23.4916 107.993 23.2621 108.763 22.803C109.55 22.3439 110.165 21.7045 110.608 20.8847C111.067 20.0649 111.297 19.1303 111.297 18.0809C111.297 17.0316 111.067 16.097 110.608 15.2772C110.165 14.4574 109.55 13.8179 108.763 13.3589C107.993 12.8998 107.116 12.6702 106.132 12.6702C105.148 12.6702 104.263 12.8998 103.476 13.3589C102.705 13.8179 102.09 14.4574 101.631 15.2772C101.188 16.097 100.967 17.0316 100.967 18.0809C100.967 19.1303 101.188 20.0649 101.631 20.8847C102.09 21.7045 102.705 22.3439 103.476 22.803C104.263 23.2621 105.148 23.4916 106.132 23.4916ZM126.811 11.6619V23.1227C126.811 25.2542 126.294 26.8282 125.261 27.8448C124.228 28.8614 122.671 29.3696 120.588 29.3696C119.408 29.3696 118.293 29.1893 117.244 28.8286C116.194 28.4679 115.35 27.9678 114.71 27.3283L115.374 26.3937C116.014 26.984 116.785 27.4431 117.686 27.771C118.588 28.0989 119.547 28.2629 120.564 28.2629C122.269 28.2629 123.532 27.853 124.351 27.0332C125.171 26.2298 125.581 24.9755 125.581 23.2703V21.106C125.056 22.0406 124.327 22.762 123.392 23.2703C122.458 23.7786 121.408 24.0327 120.244 24.0327C119.047 24.0327 117.957 23.7704 116.973 23.2457C116.006 22.7046 115.243 21.9586 114.686 21.0076C114.128 20.0567 113.85 18.9827 113.85 17.7858C113.85 16.5889 114.128 15.5149 114.686 14.564C115.243 13.613 116.006 12.8752 116.973 12.3505C117.957 11.8258 119.047 11.5635 120.244 11.5635C121.425 11.5635 122.49 11.8258 123.441 12.3505C124.392 12.8752 125.122 13.613 125.63 14.564V11.6619H126.811ZM120.343 22.926C121.343 22.926 122.244 22.7128 123.048 22.2865C123.851 21.8438 124.474 21.2372 124.917 20.4666C125.376 19.6795 125.606 18.786 125.606 17.7858C125.606 16.7856 125.376 15.9002 124.917 15.1296C124.474 14.359 123.851 13.7606 123.048 13.3343C122.244 12.8916 121.343 12.6702 120.343 12.6702C119.342 12.6702 118.441 12.8916 117.637 13.3343C116.85 13.7606 116.227 14.359 115.768 15.1296C115.325 15.9002 115.104 16.7856 115.104 17.7858C115.104 18.786 115.325 19.6795 115.768 20.4666C116.227 21.2372 116.85 21.8438 117.637 22.2865C118.441 22.7128 119.342 22.926 120.343 22.926ZM140.402 18.3761H129.36C129.393 19.3762 129.647 20.2698 130.122 21.0568C130.598 21.8274 131.237 22.4259 132.04 22.8522C132.86 23.2785 133.778 23.4916 134.795 23.4916C135.631 23.4916 136.402 23.3441 137.107 23.0489C137.828 22.7374 138.427 22.2865 138.902 21.6963L139.615 22.5079C139.058 23.1801 138.353 23.6966 137.5 24.0573C136.664 24.418 135.754 24.5984 134.77 24.5984C133.492 24.5984 132.352 24.3196 131.352 23.7622C130.352 23.2047 129.565 22.4341 128.991 21.4503C128.433 20.4666 128.155 19.3434 128.155 18.0809C128.155 16.8348 128.417 15.7199 128.942 14.7361C129.483 13.736 130.221 12.9572 131.155 12.3997C132.09 11.8422 133.139 11.5635 134.303 11.5635C135.467 11.5635 136.508 11.8422 137.427 12.3997C138.361 12.9408 139.091 13.7032 139.615 14.6869C140.157 15.6707 140.427 16.7856 140.427 18.0317L140.402 18.3761ZM134.303 12.6456C133.401 12.6456 132.59 12.8506 131.868 13.2605C131.147 13.654 130.565 14.2196 130.122 14.9575C129.696 15.6789 129.45 16.4987 129.384 17.4169H139.222C139.173 16.4987 138.927 15.6789 138.484 14.9575C138.041 14.236 137.459 13.6704 136.738 13.2605C136.017 12.8506 135.205 12.6456 134.303 12.6456Z" fill="url(#paint1_linear_1700_816843)"/>
   <defs>
      <linearGradient id="paint0_linear_1700_816843" x1="-5.54908" y1="16.004" x2="26.2379" y2="16.8377" gradientUnits="userSpaceOnUse">
         <stop stop-color="#D2EEFF"/>
         <stop offset="0.234375" stop-color="#5CBDFF"/>
         <stop offset="0.510417" stop-color="#528EFC"/>
         <stop offset="0.723958" stop-color="#8B94F3"/>
         <stop offset="1" stop-color="#A08FCE"/>
      </linearGradient>
      <linearGradient id="paint1_linear_1700_816843" x1="72.6347" y1="16" x2="141.509" y2="19.3216" gradientUnits="userSpaceOnUse">
         <stop stop-color="#D2EEFF"/>
         <stop offset="0.234375" stop-color="#5CBDFF"/>
         <stop offset="0.510417" stop-color="#528EFC"/>
         <stop offset="0.723958" stop-color="#8B94F3"/>
         <stop offset="1" stop-color="#A08FCE"/>
      </linearGradient>
   </defs>
</svg>